<svg id="visual" viewBox="0 0 900 200" width="900" height="200" xmlns="http://www.w3.org/2000/svg" xmlns:xlink="http://www.w3.org/1999/xlink" version="1.1"><rect x="0" y="0" width="900" height="200" fill="#1f2122"></rect><path d="M0 96L21.5 86.3C43 76.7 86 57.3 128.8 56.8C171.7 56.3 214.3 74.7 257.2 82.3C300 90 343 87 385.8 86.2C428.7 85.3 471.3 86.7 514.2 78.3C557 70 600 52 642.8 54.2C685.7 56.3 728.3 78.7 771.2 80.8C814 83 857 65 878.5 56L900 47L900 201L878.5 201C857 201 814 201 771.2 201C728.3 201 685.7 201 642.8 201C600 201 557 201 514.2 201C471.3 201 428.7 201 385.8 201C343 201 300 201 257.2 201C214.3 201 171.7 201 128.8 201C86 201 43 201 21.5 201L0 201Z" fill="#ff9423"></path><path d="M0 85L21.5 80.7C43 76.3 86 67.7 128.8 73.7C171.7 79.7 214.3 100.3 257.2 106.3C300 112.3 343 103.7 385.8 96.8C428.7 90 471.3 85 514.2 86.2C557 87.3 600 94.7 642.8 95.3C685.7 96 728.3 90 771.2 92.5C814 95 857 106 878.5 111.5L900 117L900 201L878.5 201C857 201 814 201 771.2 201C728.3 201 685.7 201 642.8 201C600 201 557 201 514.2 201C471.3 201 428.7 201 385.8 201C343 201 300 201 257.2 201C214.3 201 171.7 201 128.8 201C86 201 43 201 21.5 201L0 201Z" fill="#ff7e10"></path><path d="M0 140L21.5 135.7C43 131.3 86 122.7 128.8 119.3C171.7 116 214.3 118 257.2 114.5C300 111 343 102 385.8 104.2C428.7 106.3 471.3 119.7 514.2 126C557 132.3 600 131.7 642.8 125C685.7 118.3 728.3 105.7 771.2 99C814 92.3 857 91.7 878.5 91.3L900 91L900 201L878.5 201C857 201 814 201 771.2 201C728.3 201 685.7 201 642.8 201C600 201 557 201 514.2 201C471.3 201 428.7 201 385.8 201C343 201 300 201 257.2 201C214.3 201 171.7 201 128.8 201C86 201 43 201 21.5 201L0 201Z" fill="#ff6600"></path><path d="M0 163L21.5 156.7C43 150.3 86 137.7 128.8 136C171.7 134.3 214.3 143.7 257.2 143.2C300 142.7 343 132.3 385.8 128.7C428.7 125 471.3 128 514.2 132C557 136 600 141 642.8 144.8C685.7 148.7 728.3 151.3 771.2 148C814 144.7 857 135.3 878.5 130.7L900 126L900 201L878.5 201C857 201 814 201 771.2 201C728.3 201 685.7 201 642.8 201C600 201 557 201 514.2 201C471.3 201 428.7 201 385.8 201C343 201 300 201 257.2 201C214.3 201 171.7 201 128.8 201C86 201 43 201 21.5 201L0 201Z" fill="#ff4800"></path><path d="M0 173L21.5 175C43 177 86 181 128.8 181.7C171.7 182.3 214.3 179.7 257.2 175.7C300 171.7 343 166.3 385.8 161.8C428.7 157.3 471.3 153.7 514.2 151.2C557 148.7 600 147.3 642.8 148.8C685.7 150.3 728.3 154.7 771.2 156.5C814 158.3 857 157.7 878.5 157.3L900 157L900 201L878.5 201C857 201 814 201 771.2 201C728.3 201 685.7 201 642.8 201C600 201 557 201 514.2 201C471.3 201 428.7 201 385.8 201C343 201 300 201 257.2 201C214.3 201 171.7 201 128.8 201C86 201 43 201 21.5 201L0 201Z" fill="#ff1100"></path></svg>