<svg id="visual" viewBox="0 0 900 200" width="900" height="200" xmlns="http://www.w3.org/2000/svg" xmlns:xlink="http://www.w3.org/1999/xlink" version="1.1"><rect x="0" y="0" width="900" height="200" fill="#1f2122"></rect><path d="M0 99L15 104C30 109 60 119 90 119.3C120 119.7 150 110.3 180 101.8C210 93.3 240 85.7 270 86C300 86.3 330 94.7 360 101.8C390 109 420 115 450 115.7C480 116.3 510 111.7 540 112.3C570 113 600 119 630 120C660 121 690 117 720 112.2C750 107.3 780 101.7 810 96C840 90.3 870 84.7 885 81.8L900 79L900 201L885 201C870 201 840 201 810 201C780 201 750 201 720 201C690 201 660 201 630 201C600 201 570 201 540 201C510 201 480 201 450 201C420 201 390 201 360 201C330 201 300 201 270 201C240 201 210 201 180 201C150 201 120 201 90 201C60 201 30 201 15 201L0 201Z" fill="#ff1100" stroke-linecap="round" stroke-linejoin="miter"></path></svg>