<svg id="visual" viewBox="0 0 900 600" width="900" height="600" xmlns="http://www.w3.org/2000/svg" xmlns:xlink="http://www.w3.org/1999/xlink" version="1.1"><rect x="0" y="0" width="900" height="600" fill="#1f2122"></rect><path d="M654 600L555 600L555 565L525 565L525 529L638 529L638 494L595 494L595 459L642 459L642 424L653 424L653 388L593 388L593 353L647 353L647 318L628 318L628 282L570 282L570 247L658 247L658 212L584 212L584 176L624 176L624 141L528 141L528 106L536 106L536 71L665 71L665 35L594 35L594 0L900 0L900 35L900 35L900 71L900 71L900 106L900 106L900 141L900 141L900 176L900 176L900 212L900 212L900 247L900 247L900 282L900 282L900 318L900 318L900 353L900 353L900 388L900 388L900 424L900 424L900 459L900 459L900 494L900 494L900 529L900 529L900 565L900 565L900 600L900 600Z" fill="#ff9423"></path><path d="M731 600L746 600L746 565L646 565L646 529L652 529L652 494L639 494L639 459L703 459L703 424L704 424L704 388L748 388L748 353L721 353L721 318L714 318L714 282L656 282L656 247L672 247L672 212L636 212L636 176L673 176L673 141L658 141L658 106L748 106L748 71L747 71L747 35L662 35L662 0L900 0L900 35L900 35L900 71L900 71L900 106L900 106L900 141L900 141L900 176L900 176L900 212L900 212L900 247L900 247L900 282L900 282L900 318L900 318L900 353L900 353L900 388L900 388L900 424L900 424L900 459L900 459L900 494L900 494L900 529L900 529L900 565L900 565L900 600L900 600Z" fill="#ff6600"></path><path d="M809 600L788 600L788 565L828 565L828 529L786 529L786 494L762 494L762 459L795 459L795 424L777 424L777 388L834 388L834 353L757 353L757 318L841 318L841 282L842 282L842 247L753 247L753 212L793 212L793 176L809 176L809 141L790 141L790 106L764 106L764 71L745 71L745 35L771 35L771 0L900 0L900 35L900 35L900 71L900 71L900 106L900 106L900 141L900 141L900 176L900 176L900 212L900 212L900 247L900 247L900 282L900 282L900 318L900 318L900 353L900 353L900 388L900 388L900 424L900 424L900 459L900 459L900 494L900 494L900 529L900 529L900 565L900 565L900 600L900 600Z" fill="#ff1100"></path></svg>