<svg id="visual" viewBox="0 0 900 200" width="900" height="200" xmlns="http://www.w3.org/2000/svg" xmlns:xlink="http://www.w3.org/1999/xlink" version="1.1"><rect x="0" y="0" width="900" height="200" fill="#1f2122"></rect><path d="M0 67L18.8 73.3C37.7 79.7 75.3 92.3 112.8 87.8C150.3 83.3 187.7 61.7 225.2 52C262.7 42.3 300.3 44.7 337.8 46.8C375.3 49 412.7 51 450.2 48.8C487.7 46.7 525.3 40.3 562.8 39.2C600.3 38 637.7 42 675.2 51.8C712.7 61.7 750.3 77.3 787.8 79C825.3 80.7 862.7 68.3 881.3 62.2L900 56L900 201L881.3 201C862.7 201 825.3 201 787.8 201C750.3 201 712.7 201 675.2 201C637.7 201 600.3 201 562.8 201C525.3 201 487.7 201 450.2 201C412.7 201 375.3 201 337.8 201C300.3 201 262.7 201 225.2 201C187.7 201 150.3 201 112.8 201C75.3 201 37.7 201 18.8 201L0 201Z" fill="#ff1100"></path><path d="M0 70L18.8 70.7C37.7 71.3 75.3 72.7 112.8 75.5C150.3 78.3 187.7 82.7 225.2 83.7C262.7 84.7 300.3 82.3 337.8 77.5C375.3 72.7 412.7 65.3 450.2 64.3C487.7 63.3 525.3 68.7 562.8 72.2C600.3 75.7 637.7 77.3 675.2 82.5C712.7 87.7 750.3 96.3 787.8 92.7C825.3 89 862.7 73 881.3 65L900 57L900 201L881.3 201C862.7 201 825.3 201 787.8 201C750.3 201 712.7 201 675.2 201C637.7 201 600.3 201 562.8 201C525.3 201 487.7 201 450.2 201C412.7 201 375.3 201 337.8 201C300.3 201 262.7 201 225.2 201C187.7 201 150.3 201 112.8 201C75.3 201 37.7 201 18.8 201L0 201Z" fill="#ff4800"></path><path d="M0 113L18.8 115.7C37.7 118.3 75.3 123.7 112.8 127.2C150.3 130.7 187.7 132.3 225.2 129C262.7 125.7 300.3 117.3 337.8 111.5C375.3 105.7 412.7 102.3 450.2 107.5C487.7 112.7 525.3 126.3 562.8 133C600.3 139.7 637.7 139.3 675.2 139.7C712.7 140 750.3 141 787.8 139.5C825.3 138 862.7 134 881.3 132L900 130L900 201L881.3 201C862.7 201 825.3 201 787.8 201C750.3 201 712.7 201 675.2 201C637.7 201 600.3 201 562.8 201C525.3 201 487.7 201 450.2 201C412.7 201 375.3 201 337.8 201C300.3 201 262.7 201 225.2 201C187.7 201 150.3 201 112.8 201C75.3 201 37.7 201 18.8 201L0 201Z" fill="#ff6600"></path><path d="M0 140L18.8 143.7C37.7 147.3 75.3 154.7 112.8 155.8C150.3 157 187.7 152 225.2 145.3C262.7 138.7 300.3 130.3 337.8 133.2C375.3 136 412.7 150 450.2 156.5C487.7 163 525.3 162 562.8 161.3C600.3 160.7 637.7 160.3 675.2 157.7C712.7 155 750.3 150 787.8 149.2C825.3 148.3 862.7 151.7 881.3 153.3L900 155L900 201L881.3 201C862.7 201 825.3 201 787.8 201C750.3 201 712.7 201 675.2 201C637.7 201 600.3 201 562.8 201C525.3 201 487.7 201 450.2 201C412.7 201 375.3 201 337.8 201C300.3 201 262.7 201 225.2 201C187.7 201 150.3 201 112.8 201C75.3 201 37.7 201 18.8 201L0 201Z" fill="#ff7e10"></path><path d="M0 166L18.8 164.7C37.7 163.3 75.3 160.7 112.8 162C150.3 163.3 187.7 168.7 225.2 172.5C262.7 176.3 300.3 178.7 337.8 180.5C375.3 182.3 412.7 183.7 450.2 182.7C487.7 181.7 525.3 178.3 562.8 177.7C600.3 177 637.7 179 675.2 179.2C712.7 179.3 750.3 177.7 787.8 177.2C825.3 176.7 862.7 177.3 881.3 177.7L900 178L900 201L881.3 201C862.7 201 825.3 201 787.8 201C750.3 201 712.7 201 675.2 201C637.7 201 600.3 201 562.8 201C525.3 201 487.7 201 450.2 201C412.7 201 375.3 201 337.8 201C300.3 201 262.7 201 225.2 201C187.7 201 150.3 201 112.8 201C75.3 201 37.7 201 18.8 201L0 201Z" fill="#ff9423"></path></svg>